<?xml version="1.0" standalone="no"?>
<!DOCTYPE svg PUBLIC "-//W3C//DTD SVG 1.1//EN" "http://www.w3.org/Graphics/SVG/1.1/DTD/svg11.dtd">
<svg xmlns="http://www.w3.org/2000/svg" width="816" height="164" viewBox="0 0 816 164" fill="none">
<path d="M297.9 21.439C298.04 21.719 298.04 21.989 298.04 22.129C298.04 24.339 296.52 27.229 295.28 28.889C293.62 31.229 293.76 38.539 293.21 47.369C291.42 71.639 286.31 85.019 263.97 85.019C244.53 85.019 230.04 74.129 234.73 58.269C239.01 44.199 265.62 51.649 258.73 63.789C254.73 70.959 255.14 78.539 261.08 78.539C275.7 78.539 271.01 34.269 267.29 28.889C266.05 27.229 264.53 24.339 264.53 22.129C264.53 16.889 272.25 15.789 280.67 15.789H283.29C286.74 15.929 290.05 16.199 292.53 16.889C295.43 17.579 297.77 18.819 298.05 20.609C298.05 21.019 298.05 21.299 297.91 21.439H297.9Z" fill="#006738"/>
<path d="M360.23 80.189C359.68 84.329 354.3 85.019 348.92 85.019C342.71 85.019 338.3 81.299 335.41 81.299C332.52 81.299 330.58 83.919 325.76 84.749C325.07 85.029 324.24 85.029 322.86 85.029H322.31C314.04 85.029 301.62 80.889 300.93 70.689V69.999C300.93 65.999 301.07 60.069 298.17 56.349C296.79 54.559 295 53.589 295.14 51.659V51.109C295.97 47.109 303 44.349 307.69 41.869C312.52 39.519 325.48 32.769 323.55 41.589C322.72 45.589 317.76 70.269 325.07 78.689C326.04 79.379 327 79.659 328.11 79.659C329.76 79.659 331.28 78.279 332.52 76.209C333.49 74.549 333.9 70.969 333.9 67.109V66.139C333.63 61.179 331.83 57.869 330.73 56.349C329.35 54.559 327.42 53.449 327.7 51.379C328.25 47.239 335.42 44.349 340.25 41.869C344.94 39.519 358.04 32.769 356.11 41.589C355.28 45.589 351.28 70.139 357.63 76.759C358.73 78.139 360.53 78.549 360.25 80.209L360.23 80.189Z" fill="#006738"/>
<path d="M390.97 76.749C392.21 78.129 393.87 78.539 393.59 80.199C393.04 84.339 382.42 85.029 377.04 85.029C371.66 85.029 361.59 84.339 361.04 80.199C360.77 78.409 362.28 77.719 363.52 76.479C366.42 73.859 366.55 62.689 366.55 54.829C366.55 45.869 366.97 38.829 364.07 35.109C362.69 33.179 360.76 32.209 361.04 30.009C361.59 25.869 368.76 23.109 373.59 20.629C378.42 18.149 391.52 11.389 389.45 20.349C388.62 24.209 384.62 70.129 390.97 76.749Z" fill="#006738"/>
<path d="M424.21 76.749C425.45 78.129 427.11 78.539 426.83 80.199C426.28 84.339 415.66 85.029 410.28 85.029C404.9 85.029 394.83 84.339 394.28 80.199C394.01 78.409 395.52 77.719 396.76 76.479C399.66 73.859 400.21 60.069 397.31 56.349C395.93 54.559 394 53.449 394.28 51.379C394.83 47.239 402 44.349 406.83 41.869C411.66 39.519 424.76 32.769 422.69 41.589C421.86 45.589 417.86 70.139 424.21 76.759V76.749ZM398.42 26.959C398.42 21.299 402.97 16.749 408.62 16.749C414.27 16.749 418.83 21.299 418.83 26.959C418.83 32.619 414.28 37.159 408.62 37.159C402.96 37.159 398.42 32.609 398.42 26.959Z" fill="#006738"/>
<path d="M478.54 64.879L478.26 66.259C475.78 77.019 465.44 85.019 453.16 85.019C439.09 85.019 427.51 74.259 427.51 61.159C427.51 48.059 439.09 37.159 453.16 37.159C462.4 37.159 470.67 40.749 473.98 47.229C478.12 55.509 466.26 66.399 455.91 66.399C453.57 66.399 451.08 66.119 449.29 65.299C453.43 74.539 465.84 73.299 474.66 63.369C476.73 61.029 478.8 62.539 478.52 64.889L478.54 64.879ZM447.93 57.709C447.93 59.229 448.07 60.469 448.34 61.709C448.48 61.429 448.75 61.289 449.17 61.159C457.44 56.059 456.62 42.539 453.17 42.539C449.72 42.539 447.93 51.779 447.93 57.709Z" fill="#006738"/>
<path d="M571.34 64.199C571.34 77.159 556.86 85.019 545 85.019H517.83C509.42 85.019 501.69 84.049 501.69 78.679C501.69 76.199 503.48 73.159 505 71.229C509.96 65.299 508.31 34.409 504.45 28.889C503.21 27.229 501.69 24.339 501.69 22.129C501.69 16.889 509.41 15.789 517.83 15.789H540.45C551.76 15.789 564.17 21.169 564.17 32.339C564.17 38.549 560.58 42.679 555.76 45.159C564.17 48.199 571.34 54.539 571.34 64.189V64.199ZM528.04 50.269C528.04 64.749 531.9 78.949 539.49 78.949C541.97 78.949 543.63 78.679 545.83 76.879C552.86 70.949 550.52 43.639 528.04 50.269ZM528.32 43.649C540.04 43.649 549.14 26.829 542.52 22.139C541.69 21.449 540.59 21.169 539.49 21.169C532.87 21.169 529.15 31.509 528.32 43.649Z" fill="#006738"/>
<path d="M629.39 76.189C630.91 77.709 633.11 78.259 632.84 80.189C632.43 82.809 627.87 85.019 622.5 85.019C615.19 85.019 609.95 79.639 605.95 79.639C601.95 79.639 598.5 85.019 589.4 85.019C577.82 85.019 569.95 77.569 573.4 68.329C576.3 60.059 588.16 60.329 597.12 57.439C606.5 54.539 604.98 44.889 600.84 42.819C596.7 40.889 596.7 48.469 595.46 51.779C592.15 60.469 569.26 55.369 580.84 43.229C584.29 39.779 590.49 37.159 599.6 37.159C632.84 37.159 620.01 67.359 629.39 76.189ZM601.67 75.229C603.19 74.949 603.88 73.439 604.15 72.609C605.12 67.639 604.84 63.779 604.29 61.299C604.01 60.059 602.77 59.779 600.98 61.579C597.95 64.609 592.57 66.409 593.26 70.819C593.81 74.679 598.36 75.779 601.67 75.229Z" fill="#006738"/>
<path d="M692.96 80.189C692.41 84.329 687.03 85.019 681.65 85.019C675.44 85.019 671.03 81.299 668.14 81.299C665.25 81.299 663.31 83.919 658.49 84.749C657.8 85.029 656.97 85.029 655.59 85.029H655.04C646.77 85.029 634.35 80.889 633.66 70.689V69.999C633.66 65.999 633.8 60.069 630.9 56.349C629.52 54.559 627.73 53.589 627.87 51.659V51.109C628.7 47.109 635.73 44.349 640.42 41.869C645.25 39.519 658.21 32.769 656.28 41.589C655.45 45.589 650.49 70.269 657.8 78.689C658.77 79.379 659.73 79.659 660.84 79.659C662.49 79.659 664.01 78.279 665.25 76.209C666.22 74.549 666.63 70.969 666.63 67.109V66.139C666.36 61.179 664.56 57.869 663.46 56.349C662.08 54.559 660.15 53.449 660.43 51.379C660.98 47.239 668.15 44.349 672.98 41.869C677.67 39.519 690.77 32.769 688.84 41.589C688.01 45.589 684.01 70.139 690.36 76.759C691.46 78.139 693.26 78.549 692.98 80.209L692.96 80.189Z" fill="#006738"/>
<path d="M754.19 71.089C754.19 78.259 745.09 85.019 737.09 85.019H704.13C695.44 85.019 694.89 80.049 697.23 77.429C700.13 74.259 722.05 49.569 722.05 49.569C725.08 46.399 727.7 42.539 722.88 42.539C718.06 42.539 714.19 46.399 711.57 53.019C708.54 60.609 693.78 57.989 693.78 51.089C693.78 44.189 702.88 37.159 710.88 37.159H743.84C752.53 37.159 753.08 42.119 750.73 44.879C747.83 48.049 725.77 72.599 725.77 72.599C722.87 75.769 720.25 79.629 725.08 79.629C729.91 79.629 733.77 75.769 736.39 69.149C739.42 61.569 754.18 64.189 754.18 71.079L754.19 71.089Z" fill="#006738"/>
<path d="M811.83 76.189C813.35 77.709 815.55 78.259 815.28 80.189C814.87 82.809 810.31 85.019 804.94 85.019C797.63 85.019 792.39 79.639 788.39 79.639C784.39 79.639 780.94 85.019 771.84 85.019C760.26 85.019 752.39 77.569 755.84 68.329C758.74 60.059 770.6 60.329 779.56 57.439C788.94 54.539 787.42 44.889 783.28 42.819C779.14 40.889 779.14 48.469 777.9 51.779C774.59 60.469 751.7 55.369 763.28 43.229C766.73 39.779 772.93 37.159 782.04 37.159C815.28 37.159 802.45 67.359 811.83 76.189ZM784.11 75.229C785.63 74.949 786.32 73.439 786.59 72.609C787.56 67.639 787.28 63.779 786.73 61.299C786.45 60.059 785.21 59.779 783.42 61.579C780.39 64.609 775.01 66.409 775.7 70.819C776.25 74.679 780.8 75.779 784.11 75.229Z" fill="#006738"/>
<path d="M276.61 146.659H273.08L243.99 103.129H243.82C243.86 104.339 243.9 105.569 243.94 106.819C243.98 108.069 244.01 109.339 244.04 110.659C244.07 111.979 244.09 113.319 244.09 114.709V146.659H240.79V97.439H244.36L273.35 140.839H273.52C273.5 139.849 273.47 138.709 273.44 137.409C273.41 136.109 273.37 134.769 273.34 133.399C273.31 132.029 273.29 130.739 273.29 129.529V97.449H276.62V146.669L276.61 146.659Z" fill="#006738"/>
<path d="M318.08 110.059V146.649H315.32L314.82 140.049H314.62C313.99 141.399 313.11 142.619 311.96 143.719C310.81 144.819 309.41 145.699 307.75 146.349C306.09 146.999 304.16 147.329 301.96 147.329C299.15 147.329 296.8 146.839 294.91 145.869C293.01 144.889 291.58 143.419 290.62 141.439C289.66 139.459 289.17 136.999 289.17 134.029V110.059H292.57V133.689C292.57 137.349 293.39 140.039 295.04 141.769C296.69 143.499 299.11 144.359 302.29 144.359C304.98 144.359 307.24 143.839 309.07 142.809C310.9 141.779 312.29 140.209 313.24 138.119C314.19 136.029 314.67 133.399 314.67 130.259V110.059H318.08Z" fill="#006738"/>
<path d="M340.23 144.399C341.28 144.399 342.27 144.319 343.18 144.159C344.09 143.999 344.89 143.799 345.59 143.549V146.379C344.87 146.629 344.03 146.849 343.07 147.039C342.11 147.229 341.04 147.319 339.87 147.319C337.81 147.319 336.09 146.929 334.72 146.159C333.35 145.389 332.32 144.209 331.62 142.629C330.92 141.049 330.58 139.029 330.58 136.589V112.889H325.13V110.869L330.55 109.829L331.73 101.209H333.99V110.059H345.4V112.889H333.99V136.389C333.99 139.019 334.48 141.009 335.45 142.369C336.43 143.729 338.03 144.399 340.25 144.399H340.23Z" fill="#006738"/>
<path d="M367.98 109.419C368.95 109.419 369.85 109.479 370.71 109.589C371.57 109.699 372.36 109.859 373.1 110.059L372.56 113.189C371.82 112.989 371.07 112.839 370.3 112.739C369.53 112.639 368.72 112.589 367.84 112.589C366.11 112.589 364.57 112.919 363.21 113.569C361.85 114.219 360.7 115.149 359.76 116.359C358.82 117.569 358.1 119.029 357.61 120.739C357.12 122.449 356.87 124.349 356.87 126.459V146.659H353.44V110.069H356.37L356.71 116.969H356.91C357.47 115.559 358.26 114.279 359.28 113.149C360.3 112.019 361.54 111.109 363 110.439C364.46 109.769 366.12 109.429 367.98 109.429V109.419Z" fill="#006738"/>
<path d="M381.98 96.529C382.83 96.529 383.46 96.779 383.87 97.289C384.28 97.799 384.48 98.469 384.48 99.319C384.48 100.169 384.28 100.849 383.87 101.339C383.46 101.829 382.84 102.079 381.98 102.079C381.17 102.079 380.57 101.829 380.16 101.339C379.75 100.849 379.55 100.169 379.55 99.319C379.55 98.469 379.75 97.789 380.16 97.289C380.57 96.789 381.17 96.529 381.98 96.529ZM383.63 110.059V146.649H380.23V110.059H383.63Z" fill="#006738"/>
<path d="M405.71 144.399C406.76 144.399 407.75 144.319 408.66 144.159C409.57 143.999 410.37 143.799 411.07 143.549V146.379C410.35 146.629 409.51 146.849 408.55 147.039C407.59 147.229 406.52 147.319 405.35 147.319C403.29 147.319 401.57 146.929 400.2 146.159C398.83 145.389 397.8 144.209 397.1 142.629C396.4 141.049 396.06 139.029 396.06 136.589V112.889H390.61V110.869L396.03 109.829L397.21 101.209H399.47V110.059H410.88V112.889H399.47V136.389C399.47 139.019 399.96 141.009 400.93 142.369C401.9 143.729 403.51 144.399 405.73 144.399H405.71Z" fill="#006738"/>
<path d="M420.63 96.529C421.48 96.529 422.11 96.779 422.52 97.289C422.93 97.799 423.13 98.469 423.13 99.319C423.13 100.169 422.93 100.849 422.52 101.339C422.11 101.829 421.49 102.079 420.63 102.079C419.82 102.079 419.22 101.829 418.81 101.339C418.41 100.849 418.2 100.169 418.2 99.319C418.2 98.469 418.4 97.789 418.81 97.289C419.22 96.789 419.82 96.529 420.63 96.529ZM422.28 110.059V146.649H418.88V110.059H422.28Z" fill="#006738"/>
<path d="M464.83 128.309C464.83 131.139 464.48 133.719 463.79 136.039C463.09 138.359 462.06 140.359 460.69 142.049C459.32 143.729 457.62 145.039 455.59 145.959C453.56 146.879 451.2 147.339 448.5 147.339C445.8 147.339 443.66 146.889 441.67 145.979C439.68 145.069 437.98 143.769 436.6 142.089C435.22 140.409 434.17 138.409 433.45 136.079C432.73 133.759 432.37 131.169 432.37 128.319C432.37 124.389 433.03 121.009 434.34 118.169C435.65 115.329 437.54 113.149 440 111.639C442.46 110.129 445.4 109.369 448.84 109.369C452.28 109.369 455.34 110.169 457.71 111.779C460.08 113.379 461.86 115.609 463.05 118.459C464.24 121.309 464.83 124.599 464.83 128.319V128.309ZM435.88 128.309C435.88 131.519 436.34 134.319 437.26 136.729C438.18 139.129 439.58 141.009 441.45 142.349C443.32 143.699 445.7 144.369 448.57 144.369C451.44 144.369 453.92 143.699 455.81 142.349C457.7 140.999 459.09 139.119 459.98 136.689C460.87 134.259 461.33 131.469 461.33 128.309C461.33 125.149 460.9 122.499 460.05 120.099C459.2 117.699 457.85 115.809 456.01 114.429C454.17 113.049 451.77 112.359 448.81 112.359C444.57 112.359 441.35 113.769 439.16 116.599C436.97 119.429 435.88 123.329 435.88 128.319V128.309Z" fill="#006738"/>
<path d="M491.02 109.359C495.13 109.359 498.28 110.439 500.48 112.589C502.68 114.739 503.78 118.119 503.78 122.719V146.659H500.41V122.929C500.41 119.289 499.58 116.619 497.92 114.919C496.26 113.209 493.85 112.359 490.68 112.359C486.66 112.359 483.59 113.529 481.47 115.879C479.35 118.229 478.29 121.759 478.29 126.499V146.669H474.89V110.079H477.65L478.15 116.749H478.35C479 115.379 479.89 114.139 481.03 113.029C482.17 111.919 483.56 111.029 485.22 110.369C486.88 109.709 488.81 109.369 491.01 109.369L491.02 109.359Z" fill="#006738"/>
<path d="M178.31 69.129C178.21 68.819 178.09 68.649 177.9 68.449C176.78 67.329 172.3 63.019 165.24 58.979C151.23 50.649 133.78 48.709 118.83 55.429C117.86 55.689 115.56 57.579 117.01 58.209C117.39 58.319 118.02 58.079 118.46 57.899C121.05 56.709 124.19 55.529 126.78 54.869C144.73 49.829 164.15 58.469 175.38 68.979C178.04 71.309 173.3 80.219 171.61 83.119C162.93 97.619 147.03 107.489 129.6 105.589C124.24 105.049 119.19 103.719 113.19 101.119C112.46 100.769 111.05 100.319 110.68 100.849C109.47 103.129 118.9 105.489 120.53 106.069C124.38 107.139 128.65 107.839 132.38 107.939C141.06 108.209 149.17 105.869 155.58 102.059C169.31 93.809 178.9 78.949 178.35 69.189L178.33 69.139L178.31 69.129ZM170.04 72.089C169.56 71.729 168.27 72.119 167.58 72.269C158.91 74.509 150.16 76.289 141.32 77.659C140.73 77.749 139.81 77.869 139.4 77.599C138.86 77.279 139.06 76.489 139.24 75.919C141.08 70.979 143.85 66.089 147.51 62.229C149.54 60.139 148.08 59.969 146.41 61.549C142.29 65.559 139.16 70.769 136.95 76.019C136.46 77.229 135.64 78.229 134.32 78.549C128.98 79.459 123.76 79.849 118.37 80.309C117.72 80.349 116.87 80.369 116.41 79.999C115.87 79.589 115.92 78.729 116.06 78.069C117.41 71.929 120.91 66.569 125 61.819C125.52 60.989 124.76 61.199 124.17 61.519C119.2 64.869 115.36 72.519 113.85 78.219C113.24 81.479 110 80.649 107.35 80.989C105.55 81.289 106.72 82.439 108.06 82.669C110.37 83.109 113.3 81.809 114.78 84.089C118.56 90.309 123.82 95.519 130.21 99.109C131.26 99.729 132.85 100.389 134 100.239C134.66 100.019 133.45 99.419 133.1 99.209C126.74 95.809 121.22 90.749 117.55 84.589C116.49 82.899 117.19 82.179 119.03 82.059C124.45 81.599 129.84 80.759 135.23 80.119C136.59 80.049 137.73 80.729 138.66 81.679C143.2 86.109 148.5 90.069 154.44 92.369C156.01 92.799 156.24 92.179 154.8 91.379C149.67 88.799 144.93 85.349 141 81.199C140.62 80.769 140.04 80.099 140.37 79.599C140.64 79.169 141.6 78.989 142.2 78.879C151.03 77.319 159.85 75.489 168.44 72.979C168.97 72.819 169.96 72.459 170.06 72.109V72.079L170.04 72.089Z" fill="#006738"/>
<path d="M78.78 130.219C78.28 129.849 78.94 128.099 79.16 127.459C81.28 122.159 84.73 117.489 89.45 114.179C90.36 113.499 91.4 113.029 92.17 112.229C92.84 111.589 93.33 110.469 93.7 110.199C94.18 109.809 94.7 110.979 95.86 111.359C96.38 111.539 97.01 111.569 97.59 111.589C103.69 111.789 109.91 113.119 115.31 115.909C115.93 116.229 116.78 116.899 117.01 117.439C117.19 118.299 115.5 117.439 115.08 117.249C109.76 114.759 103.74 113.649 97.85 113.689C96.12 113.639 95.37 114.519 95.85 116.209C96.92 120.409 98.12 124.639 99.41 128.779C99.82 130.309 101.03 131.299 102.6 131.479C107.15 132.179 111.62 134.109 115.33 136.989C116.94 138.109 117.83 140.359 115.05 138.439C112.14 136.349 108.81 134.819 105.33 134.049C104 133.769 102.36 133.409 101.78 133.949C101.26 134.419 101.54 135.319 101.74 135.979C103.76 142.259 106.42 148.389 108.71 154.539C109.04 156.189 107.94 154.519 107.7 153.919C105.18 148.149 102.89 142.219 100.77 136.279C100.55 135.709 100.21 134.929 99.69 134.749C98.72 134.449 97.75 135.699 96.81 136.769C94.81 139.179 93.47 142.069 92.66 145.129C92.53 145.849 91.66 147.839 91.35 146.099C91.49 141.319 93.78 136.969 97.24 133.299C97.77 132.719 98.29 132.029 98.46 131.289C98.64 130.599 98.53 129.849 98.32 129.149C96.98 125.019 95.68 120.829 94.46 116.659C94.26 116.029 93.96 115.259 93.43 114.959C92.83 114.609 91.99 114.909 91.35 115.229C90.27 115.789 89.22 116.439 88.24 117.149C84.23 120.039 81.38 124.259 79.61 128.839C79.41 129.269 79.12 130.079 78.81 130.199H78.78V130.219Z" fill="#006738"/>
<path d="M112.68 162.789C111.71 163.319 110.19 163.329 109.06 163.219C96.43 162.269 78.05 148.579 72.15 134.669C71.62 133.239 68.58 126.989 71.01 126.879C71.73 126.979 72.11 128.119 72.27 128.869C73.33 133.339 75.87 137.669 78.65 141.369C85.32 150.159 95.15 157.659 105.86 160.499C107.8 160.889 109.51 161.329 111.29 160.909C112.39 160.569 112.79 159.629 113.79 158.299C115.17 156.329 117.09 153.429 118.63 150.499C123.15 142.019 125.25 131.579 123.52 120.929C123.17 118.749 122.6 116.339 121.95 114.159C121.73 113.509 121.47 112.169 122.35 112.289C122.91 112.359 123.73 113.239 124.17 114.409C130.85 136.649 120.05 155.359 112.76 162.739L112.67 162.789H112.68Z" fill="#006738"/>
<path d="M42.53 106.749C43.4 109.899 33.61 106.519 32.21 106.059C22.42 102.609 13.15 95.969 6.16 89.199C4.8 87.869 3.62 86.629 2.67 85.529C1.35 83.799 0.19 83.039 0 81.169C1.13 72.819 7.83 63.729 18.91 56.379C28.58 50.089 40.13 47.429 51.33 48.969C53.68 49.039 55.8 51.759 51.96 51.189C37.09 49.069 25 53.549 14.31 62.549C8.94 67.309 3.85 73.179 2.44 80.369C2.39 81.239 2.72 81.999 3.23 82.659C5.11 85.229 9.48 89.319 12.62 91.899C15.71 94.639 25.97 101.669 31.63 103.539C33.83 104.319 36.21 105.019 39.27 105.719C40.32 106.019 41.8 105.969 42.48 106.709L42.53 106.779V106.749Z" fill="#006738"/>
<path d="M56.25 77.549C56.29 77.819 56.14 78.099 55.87 78.509C55.23 79.359 54.64 80.519 54.3 81.609C51.94 88.729 47.39 95.489 40.94 99.579C39.31 100.359 39.05 99.709 40.37 98.639C45.9 94.289 50.06 88.669 52.09 81.729C52.28 81.079 52.43 80.179 52.04 79.689C51.57 79.079 50.58 79.089 49.83 79.079C46.68 79.109 43.49 79.159 40.35 79.319C38.81 79.349 37.65 80.319 37.07 81.719C34.91 86.499 30.63 90.219 25.84 92.589C25.27 92.849 24.31 93.139 23.85 92.969C23.32 92.529 24.81 91.759 25.21 91.499C29.34 89.169 32.92 85.949 34.78 81.809C35.02 81.249 35.25 80.479 34.84 80.049C34.46 79.629 33.52 79.629 32.88 79.659C27.77 79.939 22.63 80.299 17.56 80.649C14.98 80.729 12.37 81.259 9.8 81.029C9.37 80.959 9.13 80.839 9.15 80.709C9.31 80.369 10.26 80.249 10.77 80.189C18.13 79.469 25.54 78.749 32.93 78.179C34.03 78.129 35.42 77.759 34.94 76.419C32.69 71.279 27.76 67.939 22.5 65.849C22.04 65.669 21.46 65.439 21.11 65.199C20.76 64.959 20.64 64.749 20.8 64.629C21.21 64.389 22.29 64.559 22.89 64.729C28.63 66.569 33.62 69.679 36.73 75.239C37.46 76.679 38.71 77.789 40.39 77.659C43.72 77.499 47.12 77.339 50.45 77.249C51.02 77.219 51.73 77.119 52.12 76.769C53.11 75.679 52.04 73.889 51.72 72.649C49.52 66.459 44.72 61.459 38.95 58.209C38.12 57.809 36.78 56.699 38.65 57.009C46.3 59.929 52.01 66.509 54.57 74.589C54.76 75.639 56.01 76.879 56.23 77.479V77.539L56.25 77.549Z" fill="#006738"/>
<path d="M102.97 55.169C102.67 56.359 101.99 57.389 101.44 58.539C100.91 59.549 100.49 60.429 101.35 60.669C102.04 60.789 103.22 61.029 102.75 61.989C102.34 62.799 101.26 62.789 100.46 62.889C99.39 62.999 98.74 63.759 97.83 64.179C97.55 64.299 97.14 64.409 96.89 64.229C96.46 63.759 97.21 62.939 97.14 62.349C97.25 61.029 95.25 59.899 95.12 58.429C95.07 57.819 95.57 57.399 96.2 57.709C98.05 59.009 98.48 60.879 100.14 57.649C100.95 56.409 101.43 54.909 102.51 53.959C103.1 53.739 103.11 54.449 103.01 55.029L102.98 55.159L102.97 55.169Z" fill="#006738"/>
<path d="M110.79 57.939C110.81 63.589 110.01 69.449 107.17 74.499C106.7 75.199 106.66 74.619 106.67 74.089C106.57 70.759 107.77 67.519 108.2 64.329C108.69 58.369 108.75 52.439 107.36 46.999C106.5 43.959 102.5 47.059 100.75 47.699C96.45 49.859 92.05 52.669 88.3 55.909C84.78 58.939 81.52 62.979 81.2 67.709C81.07 68.709 81.6 71.349 79.94 70.819C77.81 69.199 79.66 63.589 80.86 61.609C84.98 54.519 92.18 49.719 99.37 46.189C101.48 45.179 103.77 44.149 106.05 43.349C106.71 43.109 107.76 42.979 108.19 43.179C108.62 43.329 108.75 43.659 108.85 44.039C109.53 46.029 110.91 54.359 110.78 57.819V57.949L110.79 57.939Z" fill="#006738"/>
<path d="M103.89 87.399C102.44 84.479 99.37 82.709 96.39 82.119C95.72 81.769 96.36 81.149 96.77 80.799C99.56 78.439 101.54 74.209 100.91 70.579C100.13 68.429 96.13 70.099 94.49 70.389C91.32 71.329 88.58 72.729 86.91 75.539C86.46 76.249 86.23 77.219 85.83 77.569C85.3 78.019 84.39 77.509 83.74 77.209C79.76 75.199 75.27 76.949 71.87 79.339C70.61 80.209 69 81.439 70.03 83.009C71.83 85.249 75.2 86.479 77.55 86.749C78.74 86.859 80.01 86.689 81.16 86.349C82.66 85.889 84.1 84.539 83.94 86.699C83.49 90.289 84.43 94.309 86.82 96.999C90.16 100.779 94.76 103.019 99.71 103.869C100.98 104.059 102.59 104.329 103.67 103.519C105.19 102.059 104.91 99.549 105.3 97.549C105.65 94.279 105.54 90.459 103.97 87.519L103.9 87.399H103.89ZM82.88 83.969C80.16 85.189 76.42 84.889 73.62 83.239C72.7 82.719 71.49 82.119 72.81 81.219C75.67 79.169 80.13 77.439 83.57 78.989C84.54 79.489 85.7 80.479 85.72 81.609C85.42 82.659 83.89 83.429 82.96 83.929L82.87 83.969H82.88ZM88.08 78.049C88.38 76.149 91.33 73.229 95.09 72.309C96.2 72.009 97.04 71.789 98.1 71.749C98.87 71.769 98.88 72.589 98.76 73.189C98 77.189 94.93 81.419 90.64 80.959C88.8 80.779 87.57 80.249 88.06 78.149L88.08 78.059V78.049ZM102.95 96.869C102.9 97.389 102.83 97.919 102.75 98.449C102.45 99.779 102.65 101.349 101.49 101.759C95.86 101.719 89.13 98.209 86.75 92.709C85.75 90.379 85.82 87.719 86.61 85.329C86.99 84.069 87.39 83.169 88.71 82.969C92.29 82.649 97.31 83.549 99.79 85.719C102.93 88.299 103.28 93.129 102.96 96.759V96.879L102.95 96.869Z" fill="#006738"/>
<path d="M62.76 90.879C63.17 90.679 63.79 90.599 64.3 90.619C67.35 90.789 70.42 91.499 73.16 92.879C73.63 93.099 74.15 93.329 74.65 93.389C75.71 93.649 77.01 92.279 78.03 92.789C78.17 92.919 78.21 93.129 78.12 93.389C77.37 94.749 76.83 95.569 77.81 97.109C79.16 99.329 80.05 101.839 80.38 104.419C80.49 104.959 80.3 107.319 79.45 106.589C79.24 106.339 79.13 105.859 79.04 105.489C78.6 103.139 77.8 100.799 76.48 98.799C76.12 98.269 75.63 97.659 74.97 97.619C74.43 97.569 73.78 98.039 73.33 98.469C70.99 100.789 68.57 103.059 66.32 105.369C65.1 106.739 66.39 107.849 67.19 109.499C67.64 110.459 68.68 112.389 67.99 113.209C66.94 113.659 66.2 111.309 65.61 110.549C65.31 110.059 64.96 109.599 64.72 109.169C64.39 108.709 64.22 107.769 63.65 108.049C63.16 108.379 62.62 108.919 62.14 109.339C60.25 111.039 58.45 113.039 56.42 114.579C56.1 114.769 55.68 115.039 55.43 114.849C55.3 114.409 55.84 113.899 56.14 113.539C57.42 112.239 58.77 110.959 60.07 109.649C60.96 108.759 62 107.839 61.79 107.079C61.19 105.589 58.96 105.519 57.81 104.729C56.5 103.819 57.96 103.389 59.07 103.619C60.77 103.779 62.83 105.319 64.34 104.839C64.85 104.679 65.32 104.299 65.73 103.909C67.92 101.659 70.14 99.399 72.29 97.099C75.33 94.039 65.76 92.229 63.85 91.969C63.33 91.879 61.87 91.549 62.7 90.929L62.78 90.889L62.76 90.879Z" fill="#006738"/>
<path d="M89.21 106.369C89.38 106.959 88.94 107.809 88.56 108.389C82.19 118.909 68.03 123.129 56.08 123.259C53.81 123.319 50.67 123.229 48.58 122.999C47.8 122.909 47.27 122.749 47 122.459C46.52 121.949 46.67 120.959 46.69 119.749C46.74 118.519 46.84 117.249 46.96 115.989C48.6 102.079 52.3 85.249 65.22 77.499C65.89 77.079 66.44 76.869 66.96 77.049C67.71 77.269 67.89 78.139 67.15 78.769C54.99 85.709 51.21 100.589 49.45 113.729C49.21 115.739 49.06 117.479 48.97 118.869C48.95 119.979 48.74 120.629 49.28 120.889C51.06 121.039 54.05 120.969 56.44 120.889C63.95 120.649 72.01 119.349 78.53 115.249C81.39 113.489 83.89 111.249 85.93 108.379C86.44 107.709 86.86 106.849 87.44 106.279C88.1 105.599 88.98 105.589 89.19 106.279L89.21 106.359V106.369Z" fill="#006738"/>
<path d="M96.39 20.399C96.57 20.909 96.58 21.859 96.48 22.509C95.58 29.559 93.3 36.429 89.33 42.289C88.36 43.509 88.49 45.409 88.07 46.609C87.98 46.829 87.84 47.009 87.65 47.099C87.5 47.169 87.34 47.149 87.19 47.069C86.54 46.689 86.23 44.919 85.12 44.449C78.18 42.399 71.4 39.329 66.09 34.189C64.98 33.229 64.01 30.919 66.3 32.759C71.16 37.019 77.07 40.219 83.3 41.659C83.93 41.799 84.83 41.879 85.04 41.209C85.2 40.789 85.03 39.989 84.88 39.439C82.28 29.549 78.81 19.899 74.16 10.799C72.82 8.15903 74.32 8.98903 75.27 10.709C80.12 19.559 83.76 29.129 86.6 38.889C86.78 39.449 87.06 40.479 87.64 40.439C88.09 40.379 88.54 39.729 88.84 39.289C92.26 34.119 94.4 28.089 95.39 21.929C95.47 21.419 95.79 19.329 96.37 20.309L96.4 20.389L96.39 20.399Z" fill="#006738"/>
<path d="M114.16 47.589C113.1 48.749 112.45 47.069 112.6 45.959C112.9 38.139 110.73 29.089 105.72 21.939C99.72 13.819 90.78 8.56903 81.31 5.29903C78.66 4.37903 75.77 3.54903 72.65 2.82903C71.3 2.59903 69.23 1.71903 68.36 2.99903C56.07 22.969 54.81 47.789 71.63 65.869C73.16 67.219 74.28 71.799 71.32 68.699C66.39 63.529 62.75 58.199 60.24 51.889C57.85 45.839 56.77 39.999 56.89 33.409C57.2 16.819 66.04 0.79903 68.3 0.0290297C70.66 -0.18097 73.25 0.79903 75.73 1.33903C96.28 7.15903 104.29 14.999 110.07 24.769C113.32 30.729 114.9 37.639 114.77 45.259C114.78 46.029 114.66 46.959 114.23 47.509L114.17 47.589H114.16Z" fill="#006738"/>
<path d="M70.73 53.519C69.99 52.969 67.67 52.429 70.96 55.219C72.21 56.279 73.86 57.329 75.25 58.189C76 58.729 76.53 58.189 76.82 57.409C76.95 57.039 76.69 56.779 76.37 56.619C74.09 55.529 70.73 53.509 70.73 53.509V53.519Z" fill="#006738"/>
</svg>